<?xml version="1.0" standalone="no"?>
<!DOCTYPE svg PUBLIC "-//W3C//DTD SVG 20010904//EN"
 "http://www.w3.org/TR/2001/REC-SVG-20010904/DTD/svg10.dtd">
<svg version="1.0" xmlns="http://www.w3.org/2000/svg"
 width="559.000000pt" height="514.000000pt" viewBox="0 0 559.000000 514.000000"
 preserveAspectRatio="xMidYMid meet">

<g transform="translate(0.000000,514.000000) scale(0.100000,-0.100000)"
fill="#000000" stroke="none">
<path d="M2967 5130 c-232 -25 -480 -96 -692 -200 -129 -63 -299 -172 -380
-243 l-50 -44 79 -97 c43 -53 79 -96 81 -96 1 0 17 30 35 68 42 85 124 167
210 209 76 37 157 60 170 47 5 -5 59 -137 120 -294 61 -157 113 -286 114 -287
1 -2 34 23 73 53 61 49 70 60 63 78 -4 11 -51 133 -104 269 -81 208 -95 251
-84 264 10 13 33 15 133 11 102 -4 134 -10 215 -37 126 -43 230 -99 353 -192
111 -84 341 -311 335 -332 -4 -10 -114 -94 -163 -122 -17 -10 -17 -15 6 -102
l24 -91 119 79 c66 44 126 78 135 77 36 -7 301 -478 301 -534 0 -18 -38 -36
-282 -132 -156 -61 -315 -123 -354 -138 -65 -25 -74 -33 -109 -86 -20 -32 -75
-100 -120 -150 l-83 -92 20 -50 c124 -315 159 -412 152 -423 -5 -8 -62 -38
-128 -68 -65 -30 -120 -56 -122 -58 -5 -5 106 -137 115 -137 5 0 47 18 95 40
90 42 121 48 129 27 126 -314 347 -894 345 -905 -7 -37 -153 -39 -288 -5 -148
36 -319 128 -472 252 l-87 71 -58 -61 c-32 -33 -59 -64 -61 -68 -4 -11 135
-123 228 -185 107 -70 112 -74 108 -94 -8 -36 -268 -5 -453 53 l-80 25 -63
-65 c-34 -36 -60 -70 -57 -75 7 -12 171 -64 262 -84 99 -22 406 -56 506 -56
47 0 139 7 204 15 518 68 978 324 1300 725 551 686 593 1637 105 2366 -309
461 -790 767 -1352 859 -118 19 -376 27 -493 15z m416 -185 c200 -26 404 -88
580 -176 56 -29 97 -55 97 -64 0 -29 -234 -275 -262 -275 -5 0 -66 59 -136
131 -131 136 -234 223 -359 303 -71 45 -92 77 -60 89 18 8 18 8 140 -8z m901
-377 c67 -52 214 -198 275 -273 108 -131 241 -349 241 -393 0 -16 -15 -26 -77
-51 -43 -16 -165 -64 -271 -105 -106 -42 -197 -76 -202 -76 -4 0 -47 78 -94
173 -47 94 -115 219 -152 277 -37 58 -74 117 -82 131 l-16 27 101 96 c56 53
125 126 154 161 29 36 59 65 67 65 8 0 33 -14 56 -32z m622 -940 c55 -192 78
-484 55 -684 -19 -161 -16 -156 -101 -143 -30 4 -128 11 -218 15 -89 4 -164
10 -166 13 -2 3 -14 60 -25 126 -24 134 -77 341 -116 455 -20 59 -23 77 -13
86 20 19 520 213 543 211 15 -2 24 -19 41 -79z m-739 -283 c54 -157 129 -498
117 -530 -3 -6 -65 -21 -142 -34 -165 -26 -372 -76 -542 -130 -98 -32 -128
-38 -137 -28 -22 23 -184 451 -176 466 10 17 811 331 837 328 14 -1 26 -20 43
-72z m673 -723 c32 -8 35 -11 34 -43 -1 -49 -84 -237 -159 -362 -97 -163 -247
-347 -281 -347 -26 0 -25 24 1 124 36 140 55 304 55 475 0 104 4 151 13 160 9
10 44 12 157 7 80 -4 161 -10 180 -14z m-534 -29 c12 -46 -4 -323 -25 -438
-36 -194 -93 -341 -182 -471 -86 -124 -194 -206 -212 -161 -203 515 -347 893
-345 905 8 39 571 187 725 191 27 1 34 -3 39 -26z"/>
<path d="M2205 3951 c-121 -55 -178 -206 -125 -329 42 -97 130 -154 240 -155
54 -1 74 4 119 28 82 45 131 122 131 207 l0 43 -18 -30 c-11 -16 -26 -36 -36
-44 -11 -9 -13 -17 -6 -26 14 -17 -26 -67 -101 -125 -35 -27 -65 -48 -66 -46
-2 2 8 23 21 47 24 41 24 44 8 71 -9 15 -22 28 -30 28 -7 0 -30 9 -52 20 -82
42 -126 146 -97 228 l15 44 -24 -6 c-39 -10 -28 10 15 27 22 9 42 21 46 27 8
13 7 13 -40 -9z"/>
<path d="M2367 3315 c5 -53 12 -66 54 -116 50 -58 110 -116 169 -161 l35 -28
-145 -142 -145 -143 -15 -108 -16 -109 69 -96 c81 -113 171 -229 255 -327 l59
-70 -110 -118 c-113 -121 -310 -304 -454 -422 l-81 -67 -47 -132 c-26 -72 -54
-152 -62 -177 l-16 -47 68 -98 c308 -447 602 -693 975 -818 205 -68 403 -96
672 -96 177 1 229 9 267 44 11 10 38 16 77 17 l59 2 -70 8 c-38 5 -77 6 -85 3
-12 -4 -12 -3 -3 7 10 10 38 10 138 -1 69 -7 128 -10 132 -6 3 3 -7 6 -23 6
-16 0 -36 5 -44 10 -11 7 -3 10 29 10 62 0 48 6 -29 13 -39 3 -55 2 -40 -3 25
-8 24 -8 -5 -9 -17 -1 -44 3 -62 8 -17 5 -48 6 -67 1 -26 -6 -36 -5 -36 4 0 8
15 13 36 14 20 1 41 6 48 11 6 5 56 13 111 18 91 7 96 8 50 14 l-50 6 50 3
c28 1 41 5 31 7 -11 3 -53 2 -95 -3 -55 -5 -69 -9 -51 -14 14 -4 -10 -7 -56
-6 -79 1 -98 16 -22 16 29 0 36 3 32 15 -5 13 10 15 102 16 72 1 99 4 79 9
l-30 8 30 2 c17 1 39 5 50 9 11 5 -68 6 -175 3 -107 -2 -192 -1 -188 3 4 4 30
7 58 6 27 0 50 4 50 9 0 5 -17 22 -37 37 -34 26 -43 28 -122 27 -475 -8 -496
-8 -590 10 -392 73 -679 276 -1020 725 l-64 84 44 41 c298 273 458 438 629
647 121 148 121 147 -7 282 -118 125 -229 253 -321 372 l-70 90 122 125 c141
145 228 255 224 284 -2 12 -30 39 -68 65 -66 46 -229 201 -268 256 l-22 30 7
-60z m1289 -3011 c-4 -9 -9 -15 -11 -12 -3 3 -3 13 1 22 4 9 9 15 11 12 3 -3
3 -13 -1 -22z m14 -50 c0 -2 -7 -4 -15 -4 -8 0 -15 4 -15 10 0 5 7 7 15 4 8
-4 15 -8 15 -10z m368 9 c-15 -2 -42 -2 -60 0 -18 2 -6 4 27 4 33 0 48 -2 33
-4z m-120 -10 c-10 -2 -28 -2 -40 0 -13 2 -5 4 17 4 22 1 32 -1 23 -4z m-248
-63 c-11 -8 -12 -12 -3 -18 10 -6 9 -14 -2 -35 -8 -15 -12 -35 -9 -45 5 -14 4
-15 -5 -2 -6 8 -11 36 -11 63 0 42 2 47 23 47 18 0 19 -2 7 -10z m175 1 c-6
-5 -26 -12 -45 -15 l-35 -6 35 14 c42 17 58 20 45 7z"/>
<path d="M4183 233 c9 -2 23 -2 30 0 6 3 -1 5 -18 5 -16 0 -22 -2 -12 -5z"/>
<path d="M4113 183 c15 -2 37 -2 50 0 12 2 0 4 -28 4 -27 0 -38 -2 -22 -4z"/>
<path d="M4103 163 c9 -2 23 -2 30 0 6 3 -1 5 -18 5 -16 0 -22 -2 -12 -5z"/>
<path d="M4128 93 c7 -3 16 -2 19 1 4 3 -2 6 -13 5 -11 0 -14 -3 -6 -6z"/>
</g>
</svg>
