<svg version="1.1" id="Layer_1" xmlns="http://www.w3.org/2000/svg" xmlns:xlink="http://www.w3.org/1999/xlink" x="0px" y="0px"
	 width="100%" viewBox="0 0 144 181" enable-background="new 0 0 144 181" xml:space="preserve">
<path fill="#030303" opacity="1.000000" stroke="none" 
	d="
M0.999999,173.000000 
	C1.000000,115.778336 1.000000,58.556671 1.000000,1.000000 
	C18.352791,1.000000 35.707737,1.000000 53.863441,1.312907 
	C53.533970,2.145506 52.448380,2.820056 51.266544,3.160702 
	C40.597748,6.235818 30.836073,10.967827 22.331202,18.653835 
	C24.170471,20.920422 25.908096,23.061749 28.045630,25.695896 
	C31.067225,18.787077 35.686520,14.849779 42.800426,13.949450 
	C45.604656,20.973490 48.298904,27.722055 51.142529,34.844776 
	C53.122837,33.225033 54.726883,31.913040 56.265873,30.654261 
	C53.686275,23.930428 51.274418,17.643810 48.634979,10.763999 
	C65.783920,9.560096 76.109329,19.445530 86.400558,30.457390 
	C82.990364,33.434566 76.746704,35.053745 81.816177,41.335842 
	C84.500145,39.659409 87.397865,37.849461 90.811951,35.716988 
	C94.514061,42.369621 98.038910,48.703724 101.826622,55.510174 
	C97.465698,57.230198 93.810745,58.716148 90.123436,60.116901 
	C82.420242,63.043221 74.594757,65.487122 69.838509,73.300995 
	C68.275162,75.869370 67.540558,77.492294 68.799461,80.269989 
	C70.681198,84.421944 72.099724,88.783836 73.767387,93.194199 
	C70.448952,94.793579 67.662415,96.136604 64.478333,97.671227 
	C65.988503,99.515778 67.215027,101.013870 68.482109,102.561508 
	C71.147408,101.520439 73.560112,100.578033 76.367714,99.481377 
	C80.750267,110.714226 84.987045,121.573441 89.344009,132.740707 
	C76.417191,134.464630 67.439156,127.852921 58.616875,120.876129 
	C57.070496,122.641205 55.806690,124.083755 54.306774,125.795807 
	C58.543365,129.074066 62.466217,132.109558 66.389069,135.145050 
	C66.184189,135.569839 65.979309,135.994644 65.774422,136.419434 
	C61.422844,135.641190 56.883251,135.395691 52.769409,133.943832 
	C48.099152,132.295578 45.422321,133.646957 42.609051,138.958237 
	C52.462463,140.289642 61.642807,142.702057 70.786102,142.568970 
	C118.183197,141.879105 151.482758,94.486610 136.283981,49.628410 
	C128.165588,25.667564 111.374481,10.501806 87.193550,3.332495 
	C86.003159,2.979559 85.058884,1.796510 84.000000,1.000000 
	C104.302826,1.000000 124.605652,1.000000 144.954239,1.000000 
	C144.954239,61.212280 144.954239,121.424606 144.954239,182.000000 
	C128.647568,182.000000 112.292442,182.000000 95.229652,181.709900 
	C95.309151,180.858765 96.096321,180.297714 97.320549,179.847198 
	C99.248161,179.961578 100.749741,179.850723 102.226990,179.992798 
	C105.437012,180.301514 106.463165,178.117172 106.429192,175.735214 
	C106.392380,173.155106 104.867622,171.588516 101.827126,172.056519 
	C99.903633,172.352600 97.902374,172.143433 95.664047,171.883118 
	C92.221214,171.139481 89.064240,170.465591 85.876465,170.252396 
	C79.825302,169.847733 73.632050,170.394882 67.718758,169.325256 
	C51.094543,166.318237 41.223862,154.192947 31.965420,141.950043 
	C39.913380,133.524490 47.735226,125.393684 55.363148,117.084862 
	C59.812275,112.238571 59.558521,111.554588 55.208351,106.836052 
	C50.388149,101.607719 45.776634,96.186996 41.213257,91.007812 
	C45.043091,86.762405 48.496384,82.945221 51.936821,79.116486 
	C53.933849,76.894058 53.402760,75.482979 51.093376,73.482735 
	C47.077950,70.004837 43.626770,65.875473 39.863232,61.646385 
	C40.659748,60.852100 41.522133,60.408497 42.406033,60.012974 
	C46.994232,57.959854 49.125057,53.848907 48.048531,49.098984 
	C47.130615,45.048882 43.101147,41.927792 38.963383,42.061951 
	C34.649475,42.201817 30.847166,45.314869 30.030602,49.375462 
	C29.077860,54.113258 31.388203,58.150829 36.036972,60.096725 
	C37.086002,60.535828 37.980774,61.343456 38.573734,62.114166 
	C36.810932,71.372864 35.592857,80.528969 33.999222,89.619240 
	C28.909914,118.649078 18.849897,145.846985 3.485476,171.032928 
	C2.969264,171.879120 1.842284,172.352722 0.999999,173.000000 
M9.409201,59.889736 
	C11.189247,63.410152 12.858829,66.994736 14.836984,70.400070 
	C15.263131,71.133667 16.802460,71.220619 17.829018,71.605446 
	C17.602459,70.632912 17.514259,69.600761 17.125393,68.698151 
	C15.441442,64.789513 13.034609,61.071480 12.056108,57.003777 
	C9.695381,47.190033 13.310135,38.836010 20.692854,30.820477 
	C18.811283,30.732674 17.460222,30.273249 17.042389,30.708895 
	C9.342472,38.737049 6.960983,48.302052 9.409201,59.889736 
M61.029461,30.120090 
	C58.236855,31.118788 59.756901,32.323078 60.766300,33.690262 
	C69.648155,45.720337 69.944229,56.124306 61.925007,68.674614 
	C61.355469,69.565964 61.351665,70.818787 60.812672,73.009705 
	C73.657867,63.181034 73.549599,43.377716 61.029461,30.120090 
M20.729128,37.404224 
	C14.335545,46.357845 13.950853,57.496033 19.916439,65.163620 
	C20.600435,66.042763 22.014013,66.354271 23.089312,66.928970 
	C23.316845,66.499817 23.544378,66.070663 23.771912,65.641510 
	C16.937006,55.370609 16.906208,48.712658 23.508785,38.646175 
	C23.986097,37.918449 23.789963,36.749012 23.906944,35.784946 
	C22.978687,36.134647 22.050430,36.484348 20.729128,37.404224 
M56.123886,64.169762 
	C56.196487,65.101311 56.269085,66.032852 56.341679,66.964401 
	C57.238277,66.429337 58.380112,66.091637 58.993889,65.328972 
	C65.835732,56.827507 64.395943,42.839733 55.355221,35.574200 
	C56.550240,39.961052 58.783360,44.067444 59.890358,48.457775 
	C61.234287,53.787777 59.789673,58.951580 56.123886,64.169762 
M55.977264,54.105766 
	C54.984657,50.206860 54.100864,46.273800 52.897774,42.440964 
	C52.684612,41.761852 51.141468,41.500202 50.212482,41.045780 
	C50.250549,42.003616 49.924969,43.211800 50.384583,43.879429 
	C53.856445,48.922581 53.936188,53.939102 50.860958,59.184586 
	C50.398071,59.974140 50.677670,61.198982 50.613808,62.222469 
	C51.150902,62.369015 51.687996,62.515560 52.225090,62.662109 
	C53.439781,60.088516 54.654476,57.514927 55.977264,54.105766 
M28.708496,59.848854 
	C25.045324,54.683670 24.997978,49.480606 28.399406,44.143852 
	C28.887430,43.378155 28.824499,42.261303 29.016548,41.306961 
	C28.085716,41.589157 26.865030,41.588787 26.270412,42.198746 
	C21.943213,46.637581 21.754988,56.681171 25.975222,60.985439 
	C26.403528,61.422276 27.975437,60.737831 28.708496,59.848854 
z"/>
<path fill="#F6F6F6" opacity="1.000000" stroke="none" 
	d="
M83.531342,1.000000 
	C85.058884,1.796510 86.003159,2.979559 87.193550,3.332495 
	C111.374481,10.501806 128.165588,25.667564 136.283981,49.628410 
	C151.482758,94.486610 118.183197,141.879105 70.786102,142.568970 
	C61.642807,142.702057 52.462463,140.289642 42.609051,138.958237 
	C45.422321,133.646957 48.099152,132.295578 52.769409,133.943832 
	C56.883251,135.395691 61.422844,135.641190 65.774422,136.419434 
	C65.979309,135.994644 66.184189,135.569839 66.389069,135.145050 
	C62.466217,132.109558 58.543365,129.074066 54.306774,125.795807 
	C55.806690,124.083755 57.070496,122.641205 58.616875,120.876129 
	C67.439156,127.852921 76.417191,134.464630 89.344009,132.740707 
	C84.987045,121.573441 80.750267,110.714226 76.367714,99.481377 
	C73.560112,100.578033 71.147408,101.520439 68.482109,102.561508 
	C67.215027,101.013870 65.988503,99.515778 64.478333,97.671227 
	C67.662415,96.136604 70.448952,94.793579 73.767387,93.194199 
	C72.099724,88.783836 70.681198,84.421944 68.799461,80.269989 
	C67.540558,77.492294 68.275162,75.869370 69.838509,73.300995 
	C74.594757,65.487122 82.420242,63.043221 90.123436,60.116901 
	C93.810745,58.716148 97.465698,57.230198 101.826622,55.510174 
	C98.038910,48.703724 94.514061,42.369621 90.811951,35.716988 
	C87.397865,37.849461 84.500145,39.659409 81.816177,41.335842 
	C76.746704,35.053745 82.990364,33.434566 86.400558,30.457390 
	C76.109329,19.445530 65.783920,9.560096 48.634979,10.763999 
	C51.274418,17.643810 53.686275,23.930428 56.265873,30.654261 
	C54.726883,31.913040 53.122837,33.225033 51.142529,34.844776 
	C48.298904,27.722055 45.604656,20.973490 42.800426,13.949450 
	C35.686520,14.849779 31.067225,18.787077 28.045630,25.695896 
	C25.908096,23.061749 24.170471,20.920422 22.331202,18.653835 
	C30.836073,10.967827 40.597748,6.235818 51.266544,3.160702 
	C52.448380,2.820056 53.533970,2.145506 54.332100,1.312907 
	C63.687561,1.000000 73.375122,1.000000 83.531342,1.000000 
M105.971542,117.282921 
	C109.197617,108.781586 110.455811,100.024033 109.663147,89.803619 
	C100.284180,92.065056 91.422134,94.201859 82.099800,96.449646 
	C86.779106,108.372589 91.005531,119.141617 95.951691,131.744507 
	C99.737183,126.412529 102.722412,122.207741 105.971542,117.282921 
M88.593086,88.075378 
	C95.348022,86.567520 102.102959,85.059662 109.567375,83.393440 
	C107.749649,76.112473 105.975311,69.005295 104.123779,61.588902 
	C93.395569,65.791962 83.569199,69.641716 73.248329,73.685196 
	C75.524483,79.531128 77.653008,84.997887 79.916199,90.810524 
	C82.840881,89.873169 85.317909,89.079292 88.593086,88.075378 
M104.585831,22.719805 
	C101.555031,25.543898 98.524223,28.367990 95.669945,31.027603 
	C99.989868,38.803753 103.910530,45.861214 107.986076,53.197472 
	C114.463348,50.646858 120.880852,48.119781 127.754265,45.413177 
	C123.199509,35.378849 116.904022,27.412830 108.516678,21.139374 
	C107.928650,20.699549 106.230782,21.743551 104.585831,22.719805 
M120.445549,83.326294 
	C124.344238,83.569786 128.242935,83.813278 132.335815,84.068893 
	C134.183365,72.826614 133.859299,62.304855 130.059204,51.467171 
	C123.089661,54.214474 116.572990,56.783257 110.399826,59.216637 
	C112.088791,66.566879 113.786026,73.287292 115.119598,80.079109 
	C115.665802,82.860909 117.022713,83.665871 120.445549,83.326294 
M122.447235,107.901512 
	C125.281242,102.441666 128.115250,96.981819 131.520737,90.420990 
	C125.511818,90.420990 121.181686,90.420990 117.074135,90.420990 
	C116.133690,99.255112 115.204994,107.978836 114.106506,118.297577 
	C117.345970,114.289970 119.689041,111.391319 122.447235,107.901512 
M86.564995,20.945456 
	C88.221626,22.724197 89.878265,24.502939 91.872559,26.644232 
	C95.272041,23.068333 98.285271,19.898727 101.748184,16.256109 
	C91.876419,11.120154 82.497223,7.623947 70.916245,7.824011 
	C76.688309,12.633133 81.375710,16.538551 86.564995,20.945456 
z"/>
<path fill="#F9F9F9" opacity="1.000000" stroke="none" 
	d="
M96.883484,179.736664 
	C96.096321,180.297714 95.309151,180.858765 94.760994,181.709900 
	C86.312439,182.000000 77.624870,182.000000 68.744263,181.663147 
	C68.033546,180.933746 67.566917,180.309677 66.990707,180.182648 
	C53.478031,177.203430 42.884205,169.707321 34.330425,159.088272 
	C31.145784,155.134689 28.120817,151.052475 24.867018,146.826279 
	C21.905928,153.169586 19.229801,159.305450 16.205637,165.264694 
	C13.326052,170.939011 10.083161,176.428986 7.000001,182.000000 
	C5.933331,182.000000 4.866662,182.000000 3.737427,181.672012 
	C2.783242,180.896011 1.891621,180.448013 1.000000,180.000000 
	C1.000000,177.958328 1.000000,175.916672 0.999999,173.437500 
	C1.842284,172.352722 2.969264,171.879120 3.485476,171.032928 
	C18.849897,145.846985 28.909914,118.649078 33.999222,89.619240 
	C35.592857,80.528969 36.810932,71.372864 38.821747,62.126354 
	C39.442577,62.005817 39.939026,62.019249 39.939026,62.019249 
	C43.626770,65.875473 47.077950,70.004837 51.093376,73.482735 
	C53.402760,75.482979 53.933849,76.894058 51.936821,79.116486 
	C48.496384,82.945221 45.043091,86.762405 41.213257,91.007812 
	C45.776634,96.186996 50.388149,101.607719 55.208351,106.836052 
	C59.558521,111.554588 59.812275,112.238571 55.363148,117.084862 
	C47.735226,125.393684 39.913380,133.524490 31.965420,141.950043 
	C41.223862,154.192947 51.094543,166.318237 67.718758,169.325256 
	C73.632050,170.394882 79.825302,169.847733 85.876465,170.252396 
	C89.064240,170.465591 92.221214,171.139481 95.799149,172.251511 
	C96.431953,175.177338 96.657722,177.457001 96.883484,179.736664 
M31.868864,131.108612 
	C38.682224,124.862839 45.495583,118.617065 52.264545,112.411987 
	C47.536350,106.418556 43.359570,101.124100 39.178501,95.824211 
	C36.172710,107.698570 33.285805,119.103271 30.199644,130.962524 
	C30.308552,131.254120 30.417458,131.545700 30.526365,131.837296 
	C30.746716,131.621872 30.967066,131.406433 31.868864,131.108612 
M39.998142,83.738876 
	C40.619362,84.015274 41.572479,84.699890 41.811180,84.505814 
	C44.636078,82.209038 47.354263,79.781013 49.196022,78.175797 
	C46.046383,74.703873 43.572891,71.977280 41.343044,69.519272 
	C40.918701,73.777588 40.460968,78.371010 39.998142,83.738876 
z"/>
<path fill="#020202" opacity="1.000000" stroke="none" 
	d="
M7.468658,182.000000 
	C10.083161,176.428986 13.326052,170.939011 16.205637,165.264694 
	C19.229801,159.305450 21.905928,153.169586 24.867018,146.826279 
	C28.120817,151.052475 31.145784,155.134689 34.330425,159.088272 
	C42.884205,169.707321 53.478031,177.203430 66.990707,180.182648 
	C67.566917,180.309677 68.033546,180.933746 68.275612,181.663147 
	C47.979103,182.000000 27.958210,182.000000 7.468658,182.000000 
z"/>
<path fill="#020202" opacity="1.000000" stroke="none" 
	d="
M1.000000,180.500000 
	C1.891621,180.448013 2.783242,180.896011 3.337431,181.672012 
	C2.333333,181.666672 1.666666,181.333328 1.000000,180.500000 
z"/>
<path fill="#F8F8F8" opacity="1.000000" stroke="none" 
	d="
M39.863232,61.646385 
	C39.939026,62.019249 39.442577,62.005817 39.194565,61.993629 
	C37.980774,61.343456 37.086002,60.535828 36.036972,60.096725 
	C31.388203,58.150829 29.077860,54.113258 30.030602,49.375462 
	C30.847166,45.314869 34.649475,42.201817 38.963383,42.061951 
	C43.101147,41.927792 47.130615,45.048882 48.048531,49.098984 
	C49.125057,53.848907 46.994232,57.959854 42.406033,60.012974 
	C41.522133,60.408497 40.659748,60.852100 39.863232,61.646385 
z"/>
<path fill="#E6E6E6" opacity="1.000000" stroke="none" 
	d="
M9.285589,59.499527 
	C6.960983,48.302052 9.342472,38.737049 17.042389,30.708895 
	C17.460222,30.273249 18.811283,30.732674 20.692854,30.820477 
	C13.310135,38.836010 9.695381,47.190033 12.056108,57.003777 
	C13.034609,61.071480 15.441442,64.789513 17.125393,68.698151 
	C17.514259,69.600761 17.602459,70.632912 17.829018,71.605446 
	C16.802460,71.220619 15.263131,71.133667 14.836984,70.400070 
	C12.858829,66.994736 11.189247,63.410152 9.285589,59.499527 
z"/>
<path fill="#E6E6E6" opacity="1.000000" stroke="none" 
	d="
M61.396271,30.235302 
	C73.549599,43.377716 73.657867,63.181034 60.812672,73.009705 
	C61.351665,70.818787 61.355469,69.565964 61.925007,68.674614 
	C69.944229,56.124306 69.648155,45.720337 60.766300,33.690262 
	C59.756901,32.323078 58.236855,31.118788 61.396271,30.235302 
z"/>
<path fill="#E4E4E4" opacity="1.000000" stroke="none" 
	d="
M20.925652,37.119141 
	C22.050430,36.484348 22.978687,36.134647 23.906944,35.784946 
	C23.789963,36.749012 23.986097,37.918449 23.508785,38.646175 
	C16.906208,48.712658 16.937006,55.370609 23.771912,65.641510 
	C23.544378,66.070663 23.316845,66.499817 23.089312,66.928970 
	C22.014013,66.354271 20.600435,66.042763 19.916439,65.163620 
	C13.950853,57.496033 14.335545,46.357845 20.925652,37.119141 
z"/>
<path fill="#E4E4E4" opacity="1.000000" stroke="none" 
	d="
M56.401577,63.861538 
	C59.789673,58.951580 61.234287,53.787777 59.890358,48.457775 
	C58.783360,44.067444 56.550240,39.961052 55.355221,35.574200 
	C64.395943,42.839733 65.835732,56.827507 58.993889,65.328972 
	C58.380112,66.091637 57.238277,66.429337 56.341682,66.964401 
	C56.269085,66.032852 56.196487,65.101311 56.401577,63.861538 
z"/>
<path fill="#A6A6A6" opacity="1.000000" stroke="none" 
	d="
M97.320549,179.847198 
	C96.657722,177.457001 96.431953,175.177338 96.071091,172.529266 
	C97.902374,172.143433 99.903633,172.352600 101.827126,172.056519 
	C104.867622,171.588516 106.392380,173.155106 106.429192,175.735214 
	C106.463165,178.117172 105.437012,180.301514 102.226990,179.992798 
	C100.749741,179.850723 99.248161,179.961578 97.320549,179.847198 
z"/>
<path fill="#E9E9E9" opacity="1.000000" stroke="none" 
	d="
M55.923218,54.523552 
	C54.654476,57.514927 53.439781,60.088516 52.225090,62.662109 
	C51.687996,62.515560 51.150902,62.369015 50.613808,62.222469 
	C50.677670,61.198982 50.398071,59.974140 50.860958,59.184586 
	C53.936188,53.939102 53.856445,48.922581 50.384583,43.879429 
	C49.924969,43.211800 50.250549,42.003616 50.212482,41.045780 
	C51.141468,41.500202 52.684612,41.761852 52.897774,42.440964 
	C54.100864,46.273800 54.984657,50.206860 55.923218,54.523552 
z"/>
<path fill="#EAEAEA" opacity="1.000000" stroke="none" 
	d="
M28.862572,60.211292 
	C27.975437,60.737831 26.403528,61.422276 25.975222,60.985439 
	C21.754988,56.681171 21.943213,46.637581 26.270412,42.198746 
	C26.865030,41.588787 28.085716,41.589157 29.016548,41.306961 
	C28.824499,42.261303 28.887430,43.378155 28.399406,44.143852 
	C24.997978,49.480606 25.045324,54.683670 28.862572,60.211292 
z"/>
<path fill="#050505" opacity="1.000000" stroke="none" 
	d="
M105.839592,117.642929 
	C102.722412,122.207741 99.737183,126.412529 95.951691,131.744507 
	C91.005531,119.141617 86.779106,108.372589 82.099800,96.449646 
	C91.422134,94.201859 100.284180,92.065056 109.663147,89.803619 
	C110.455811,100.024033 109.197617,108.781586 105.839592,117.642929 
z"/>
<path fill="#050505" opacity="1.000000" stroke="none" 
	d="
M88.194016,88.180397 
	C85.317909,89.079292 82.840881,89.873169 79.916199,90.810524 
	C77.653008,84.997887 75.524483,79.531128 73.248329,73.685196 
	C83.569199,69.641716 93.395569,65.791962 104.123779,61.588902 
	C105.975311,69.005295 107.749649,76.112473 109.567375,83.393440 
	C102.102959,85.059662 95.348022,86.567520 88.194016,88.180397 
z"/>
<path fill="#050505" opacity="1.000000" stroke="none" 
	d="
M104.817413,22.408680 
	C106.230782,21.743551 107.928650,20.699549 108.516678,21.139374 
	C116.904022,27.412830 123.199509,35.378849 127.754265,45.413177 
	C120.880852,48.119781 114.463348,50.646858 107.986076,53.197472 
	C103.910530,45.861214 99.989868,38.803753 95.669945,31.027603 
	C98.524223,28.367990 101.555031,25.543898 104.817413,22.408680 
z"/>
<path fill="#050505" opacity="1.000000" stroke="none" 
	d="
M119.994041,83.325874 
	C117.022713,83.665871 115.665802,82.860909 115.119598,80.079109 
	C113.786026,73.287292 112.088791,66.566879 110.399826,59.216637 
	C116.572990,56.783257 123.089661,54.214474 130.059204,51.467171 
	C133.859299,62.304855 134.183365,72.826614 132.335815,84.068893 
	C128.242935,83.813278 124.344238,83.569786 119.994041,83.325874 
z"/>
<path fill="#0C0C0C" opacity="1.000000" stroke="none" 
	d="
M122.239670,108.197090 
	C119.689041,111.391319 117.345970,114.289970 114.106506,118.297577 
	C115.204994,107.978836 116.133690,99.255112 117.074135,90.420990 
	C121.181686,90.420990 125.511818,90.420990 131.520737,90.420990 
	C128.115250,96.981819 125.281242,102.441666 122.239670,108.197090 
z"/>
<path fill="#090909" opacity="1.000000" stroke="none" 
	d="
M86.314056,20.694712 
	C81.375710,16.538551 76.688309,12.633133 70.916245,7.824011 
	C82.497223,7.623947 91.876419,11.120154 101.748184,16.256109 
	C98.285271,19.898727 95.272041,23.068333 91.872559,26.644232 
	C89.878265,24.502939 88.221626,22.724197 86.314056,20.694712 
z"/>
<path fill="#060606" opacity="1.000000" stroke="none" 
	d="
M30.398899,130.507965 
	C33.285805,119.103271 36.172710,107.698570 39.178501,95.824211 
	C43.359570,101.124100 47.536350,106.418556 52.264545,112.411987 
	C45.495583,118.617065 38.682224,124.862839 31.338673,130.970215 
	C30.671951,130.723846 30.535423,130.615906 30.398899,130.507965 
z"/>
<path fill="#070707" opacity="1.000000" stroke="none" 
	d="
M40.000687,83.351654 
	C40.460968,78.371010 40.918701,73.777588 41.343044,69.519272 
	C43.572891,71.977280 46.046383,74.703873 49.196022,78.175797 
	C47.354263,79.781013 44.636078,82.209038 41.811180,84.505814 
	C41.572479,84.699890 40.619362,84.015274 40.000687,83.351654 
z"/>
<path fill="#060606" opacity="1.000000" stroke="none" 
	d="
M30.997948,131.011414 
	C30.967066,131.406433 30.746716,131.621872 30.526365,131.837296 
	C30.417458,131.545700 30.308552,131.254120 30.299271,130.735245 
	C30.535423,130.615906 30.671951,130.723846 30.997948,131.011414 
z"/>
</svg>